<svg width="57" height="57" viewBox="0 0 57 57" fill="none" xmlns="http://www.w3.org/2000/svg">
<path fill-rule="evenodd" clip-rule="evenodd" d="M12.0116 12.0116C2.90524 21.1179 2.90524 35.8821 12.0116 44.9884C21.1179 54.0948 35.8821 54.0948 44.9884 44.9884C54.0948 35.8821 54.0948 21.1179 44.9884 12.0116C35.8821 2.90524 21.1179 2.90524 12.0116 12.0116ZM8.34746 48.6525C-2.78249 37.5226 -2.78249 19.4774 8.34746 8.34746C19.4774 -2.78249 37.5226 -2.78249 48.6525 8.34746C59.7825 19.4774 59.7825 37.5226 48.6525 48.6525C37.5226 59.7825 19.4774 59.7825 8.34746 48.6525Z" fill="black"/>
<path fill-rule="evenodd" clip-rule="evenodd" d="M19.3398 19.3398C20.3516 18.3279 21.992 18.3279 23.0039 19.3398L37.6602 33.9961C38.6721 35.008 38.6721 36.6484 37.6602 37.6602C36.6484 38.6721 35.008 38.6721 33.9961 37.6602L19.3398 23.0039C18.3279 21.992 18.3279 20.3516 19.3398 19.3398Z" fill="black"/>
<path fill-rule="evenodd" clip-rule="evenodd" d="M19.3398 37.6602C18.3279 36.6484 18.3279 35.008 19.3398 33.9961L33.9961 19.3398C35.008 18.3279 36.6484 18.3279 37.6602 19.3398C38.6721 20.3516 38.6721 21.992 37.6602 23.0039L23.0039 37.6602C21.992 38.6721 20.3516 38.6721 19.3398 37.6602Z" fill="black"/>
</svg>
