<svg width="57" height="57" viewBox="0 0 57 57" fill="none" xmlns="http://www.w3.org/2000/svg">
<path fill-rule="evenodd" clip-rule="evenodd" d="M28.5 51.8182C15.6217 51.8182 5.18182 41.3783 5.18182 28.5C5.18182 15.6217 15.6217 5.18182 28.5 5.18182C41.3783 5.18182 51.8182 15.6217 51.8182 28.5C51.8182 41.3783 41.3783 51.8182 28.5 51.8182ZM0 28.5C0 44.2401 12.7599 57 28.5 57C44.2401 57 57 44.2401 57 28.5C57 12.7599 44.2401 0 28.5 0C12.7599 0 0 12.7599 0 28.5Z" fill="black"/>
<path d="M30.332 40.6957C29.3202 41.7075 27.6798 41.7075 26.6679 40.6957L16.3043 30.332C15.2925 29.3202 15.2925 27.6798 16.3043 26.6679C17.3161 25.6561 18.9566 25.6561 19.9684 26.6679L25.9091 32.6086V18.1364C25.9091 16.7054 27.0691 15.5455 28.5 15.5455C29.9309 15.5455 31.0909 16.7054 31.0909 18.1364V32.6086L37.0316 26.6679C38.0434 25.6561 39.6839 25.6561 40.6957 26.6679C41.7075 27.6798 41.7075 29.3202 40.6957 30.332L30.332 40.6957Z" fill="black"/>
</svg>
