<svg width="204" height="204" viewBox="0 0 204 204" fill="none" xmlns="http://www.w3.org/2000/svg">
<g filter="url(#filter0_d)">
<rect x="2.5" y="0.5" width="199" height="199" rx="99.5" fill="white" fill-opacity="0.9" stroke="black"/>
<path fill-rule="evenodd" clip-rule="evenodd" d="M98.25 70C83.7525 70 72 81.7525 72 96.25C72 110.747 83.7525 122.5 98.25 122.5C112.747 122.5 124.5 110.747 124.5 96.25C124.5 81.7525 112.747 70 98.25 70ZM64.5 96.25C64.5 77.6104 79.6104 62.5 98.25 62.5C116.89 62.5 132 77.6104 132 96.25C132 114.89 116.89 130 98.25 130C79.6104 130 64.5 114.89 64.5 96.25Z" fill="black" stroke="black" stroke-linecap="round" stroke-linejoin="round"/>
<path fill-rule="evenodd" clip-rule="evenodd" d="M116.786 114.785C118.25 113.321 120.625 113.321 122.089 114.785L138.402 131.098C139.866 132.562 139.866 134.937 138.402 136.401C136.937 137.866 134.563 137.866 133.098 136.401L116.786 120.089C115.321 118.624 115.321 116.25 116.786 114.785Z" fill="black" stroke="black" stroke-linecap="round" stroke-linejoin="round"/>
</g>
<defs>
<filter id="filter0_d" x="0" y="0" width="204" height="204" filterUnits="userSpaceOnUse" color-interpolation-filters="sRGB">
<feFlood flood-opacity="0" result="BackgroundImageFix"/>
<feColorMatrix in="SourceAlpha" type="matrix" values="0 0 0 0 0 0 0 0 0 0 0 0 0 0 0 0 0 0 127 0"/>
<feOffset dy="2"/>
<feGaussianBlur stdDeviation="1"/>
<feColorMatrix type="matrix" values="0 0 0 0 0 0 0 0 0 0 0 0 0 0 0 0 0 0 0.25 0"/>
<feBlend mode="normal" in2="BackgroundImageFix" result="effect1_dropShadow"/>
<feBlend mode="normal" in="SourceGraphic" in2="effect1_dropShadow" result="shape"/>
</filter>
</defs>
</svg>
