<svg width="57" height="57" viewBox="0 0 57 57" fill="none" xmlns="http://www.w3.org/2000/svg">
<path fill-rule="evenodd" clip-rule="evenodd" d="M28.5 5.18182C15.6217 5.18182 5.18182 15.6217 5.18182 28.5C5.18182 41.3783 15.6217 51.8182 28.5 51.8182C41.3783 51.8182 51.8182 41.3783 51.8182 28.5C51.8182 15.6217 41.3783 5.18182 28.5 5.18182ZM0 28.5C0 12.7599 12.7599 0 28.5 0C44.2401 0 57 12.7599 57 28.5C57 44.2401 44.2401 57 28.5 57C12.7599 57 0 44.2401 0 28.5Z" fill="black"/>
<path d="M30.332 16.3043C29.3202 15.2925 27.6798 15.2925 26.6679 16.3043L16.3043 26.6679C15.2925 27.6798 15.2925 29.3202 16.3043 30.332C17.3161 31.3439 18.9566 31.3439 19.9684 30.332L25.9091 24.3914V38.8636C25.9091 40.2946 27.0691 41.4545 28.5 41.4545C29.9309 41.4545 31.0909 40.2946 31.0909 38.8636V24.3914L37.0316 30.332C38.0434 31.3439 39.6839 31.3439 40.6957 30.332C41.7075 29.3202 41.7075 27.6798 40.6957 26.6679L30.332 16.3043Z" fill="black"/>
</svg>
